<?xml version="1.0" encoding="UTF-8" standalone="no"?>
<svg width="139px" height="40px" viewBox="0 0 139 40" version="1.1" xmlns="http://www.w3.org/2000/svg" xmlns:xlink="http://www.w3.org/1999/xlink" xmlns:sketch="http://www.bohemiancoding.com/sketch/ns">
    <!-- Generator: Sketch 3.4.4 (17249) - http://www.bohemiancoding.com/sketch -->
    <title>btn-add-to-slack</title>
    <desc>Created with Sketch.</desc>
    <defs></defs>
    <g id="Handoff-01" stroke="none" stroke-width="1" fill="none" fill-rule="evenodd" sketch:type="MSPage">
        <g id="btn-add-to-slack" sketch:type="MSLayerGroup">
            <rect id="Mask-Copy-10" stroke="#C7CACD" fill="#FFFFFF" sketch:type="MSShapeGroup" x="0" y="0" width="139" height="40" rx="6"></rect>
            <path d="M46.16875,21.4684512 L44.80475,17.7407012 C44.737583,17.575367 44.6678337,17.3790356 44.5955,17.1517012 C44.5231663,16.9243667 44.4508337,16.6789525 44.3785,16.4154512 C44.311333,16.6789525 44.2415837,16.9256584 44.16925,17.1555762 C44.0969163,17.385494 44.027167,17.5857003 43.96,17.7562012 L42.60375,21.4684512 L46.16875,21.4684512 Z M49.85,25.6999512 L48.238,25.6999512 C48.0571658,25.6999512 47.9099172,25.6547433 47.79625,25.5643262 C47.6825828,25.4739091 47.5973336,25.3615352 47.5405,25.2272012 L46.7035,22.9409512 L42.06125,22.9409512 L41.22425,25.2272012 C41.1829165,25.3460351 41.1028339,25.454534 40.984,25.5527012 C40.8651661,25.6508683 40.7179175,25.6999512 40.54225,25.6999512 L38.91475,25.6999512 L43.3245,14.4934512 L45.448,14.4934512 L49.85,25.6999512 Z M55.70125,19.7789512 C55.4842489,19.5154499 55.2478763,19.3294517 54.992125,19.2209512 C54.7363737,19.1124506 54.4612515,19.0582012 54.16675,19.0582012 C53.8774152,19.0582012 53.6165012,19.1124506 53.384,19.2209512 C53.1514988,19.3294517 52.9525842,19.4934917 52.78725,19.7130762 C52.6219158,19.9326606 52.4953338,20.2116578 52.4075,20.5500762 C52.3196662,20.8884945 52.27575,21.2876155 52.27575,21.7474512 C52.27575,22.2124535 52.313208,22.6064079 52.388125,22.9293262 C52.463042,23.2522445 52.5702493,23.5157418 52.70975,23.7198262 C52.8492507,23.9239105 53.019749,24.0711591 53.22125,24.1615762 C53.422751,24.2519933 53.6474988,24.2972012 53.8955,24.2972012 C54.2933353,24.2972012 54.6317486,24.2145353 54.91075,24.0492012 C55.1897514,23.883867 55.4532488,23.648786 55.70125,23.3439512 L55.70125,19.7789512 Z M57.6155,14.1834512 L57.6155,25.6999512 L56.44525,25.6999512 C56.1920821,25.6999512 56.031917,25.5837023 55.96475,25.3512012 L55.802,24.5839512 C55.4816651,24.9507863 55.1135437,25.2478667 54.697625,25.4752012 C54.2817063,25.7025356 53.7973361,25.8162012 53.2445,25.8162012 C52.8104978,25.8162012 52.4126685,25.7257854 52.051,25.5449512 C51.6893315,25.3641169 51.378043,25.1019112 51.117125,24.7583262 C50.856207,24.4147411 50.654709,23.989787 50.512625,23.4834512 C50.370541,22.9771153 50.2995,22.3984544 50.2995,21.7474512 C50.2995,21.1584482 50.3795825,20.610787 50.53975,20.1044512 C50.6999175,19.5981153 50.9298318,19.158953 51.2295,18.7869512 C51.5291682,18.4149493 51.8882479,18.1243272 52.30675,17.9150762 C52.7252521,17.7058251 53.1954141,17.6012012 53.71725,17.6012012 C54.1615856,17.6012012 54.5413318,17.6709505 54.8565,17.8104512 C55.1716682,17.9499519 55.4532488,18.1385333 55.70125,18.3762012 L55.70125,14.1834512 L57.6155,14.1834512 Z M64.4975,19.7789512 C64.2804989,19.5154499 64.0441263,19.3294517 63.788375,19.2209512 C63.5326237,19.1124506 63.2575015,19.0582012 62.963,19.0582012 C62.6736652,19.0582012 62.4127512,19.1124506 62.18025,19.2209512 C61.9477488,19.3294517 61.7488342,19.4934917 61.5835,19.7130762 C61.4181658,19.9326606 61.2915838,20.2116578 61.20375,20.5500762 C61.1159162,20.8884945 61.072,21.2876155 61.072,21.7474512 C61.072,22.2124535 61.109458,22.6064079 61.184375,22.9293262 C61.259292,23.2522445 61.3664993,23.5157418 61.506,23.7198262 C61.6455007,23.9239105 61.815999,24.0711591 62.0175,24.1615762 C62.219001,24.2519933 62.4437488,24.2972012 62.69175,24.2972012 C63.0895853,24.2972012 63.4279986,24.2145353 63.707,24.0492012 C63.9860014,23.883867 64.2494988,23.648786 64.4975,23.3439512 L64.4975,19.7789512 Z M66.41175,14.1834512 L66.41175,25.6999512 L65.2415,25.6999512 C64.9883321,25.6999512 64.828167,25.5837023 64.761,25.3512012 L64.59825,24.5839512 C64.2779151,24.9507863 63.9097937,25.2478667 63.493875,25.4752012 C63.0779563,25.7025356 62.5935861,25.8162012 62.04075,25.8162012 C61.6067478,25.8162012 61.2089185,25.7257854 60.84725,25.5449512 C60.4855815,25.3641169 60.174293,25.1019112 59.913375,24.7583262 C59.652457,24.4147411 59.450959,23.989787 59.308875,23.4834512 C59.166791,22.9771153 59.09575,22.3984544 59.09575,21.7474512 C59.09575,21.1584482 59.1758325,20.610787 59.336,20.1044512 C59.4961675,19.5981153 59.7260818,19.158953 60.02575,18.7869512 C60.3254182,18.4149493 60.6844979,18.1243272 61.103,17.9150762 C61.5215021,17.7058251 61.9916641,17.6012012 62.5135,17.6012012 C62.9578356,17.6012012 63.3375818,17.6709505 63.65275,17.8104512 C63.9679182,17.9499519 64.2494988,18.1385333 64.4975,18.3762012 L64.4975,14.1834512 L66.41175,14.1834512 Z M74.71975,25.8239512 C74.0274132,25.8239512 73.4965435,25.6289115 73.127125,25.2388262 C72.7577065,24.8487409 72.573,24.3101213 72.573,23.6229512 L72.573,19.1822012 L71.75925,19.1822012 C71.6559161,19.1822012 71.5680837,19.1486182 71.49575,19.0814512 C71.4234163,19.0142842 71.38725,18.9135352 71.38725,18.7792012 L71.38725,18.0197012 L72.666,17.8104512 L73.069,15.6404512 C73.0948335,15.5371173 73.1439163,15.4570348 73.21625,15.4002012 C73.2885837,15.3433676 73.3815828,15.3149512 73.49525,15.3149512 L74.48725,15.3149512 L74.48725,17.8182012 L76.61075,17.8182012 L76.61075,19.1822012 L74.48725,19.1822012 L74.48725,23.4912012 C74.48725,23.7392024 74.5479577,23.9329505 74.669375,24.0724512 C74.7907923,24.2119519 74.9574156,24.2817012 75.16925,24.2817012 C75.2880839,24.2817012 75.3875413,24.267493 75.467625,24.2390762 C75.5477087,24.2106594 75.617458,24.1809513 75.676875,24.1499512 C75.736292,24.118951 75.7892498,24.089243 75.83575,24.0608262 C75.8822502,24.0324094 75.9287498,24.0182012 75.97525,24.0182012 C76.0320836,24.0182012 76.0785832,24.0324094 76.11475,24.0608262 C76.1509168,24.089243 76.1896665,24.1318676 76.231,24.1887012 L76.8045,25.1187012 C76.5254986,25.3512023 76.2051685,25.5268672 75.8435,25.6457012 C75.4818315,25.7645351 75.1072519,25.8239512 74.71975,25.8239512 L74.71975,25.8239512 Z M81.35375,17.6244512 C81.9427529,17.6244512 82.4787893,17.7200335 82.961875,17.9112012 C83.4449607,18.1023688 83.8582899,18.3736161 84.201875,18.7249512 C84.5454601,19.0762863 84.8102491,19.5051153 84.99625,20.0114512 C85.1822509,20.517787 85.27525,21.0835314 85.27525,21.7087012 C85.27525,22.3390377 85.1822509,22.9073653 84.99625,23.4137012 C84.8102491,23.920037 84.5454601,24.3514494 84.201875,24.7079512 C83.8582899,25.064453 83.4449607,25.3382835 82.961875,25.5294512 C82.4787893,25.7206188 81.9427529,25.8162012 81.35375,25.8162012 C80.7595804,25.8162012 80.2196691,25.7206188 79.734,25.5294512 C79.2483309,25.3382835 78.8337101,25.064453 78.490125,24.7079512 C78.1465399,24.3514494 77.8804593,23.920037 77.691875,23.4137012 C77.5032907,22.9073653 77.409,22.3390377 77.409,21.7087012 C77.409,21.0835314 77.5032907,20.517787 77.691875,20.0114512 C77.8804593,19.5051153 78.1465399,19.0762863 78.490125,18.7249512 C78.8337101,18.3736161 79.2483309,18.1023688 79.734,17.9112012 C80.2196691,17.7200335 80.7595804,17.6244512 81.35375,17.6244512 L81.35375,17.6244512 Z M81.35375,24.3437012 C82.0150866,24.3437012 82.5046234,24.1215367 82.822375,23.6772012 C83.1401266,23.2328656 83.299,22.5818721 83.299,21.7242012 C83.299,20.8665302 83.1401266,20.2129534 82.822375,19.7634512 C82.5046234,19.3139489 82.0150866,19.0892012 81.35375,19.0892012 C80.68208,19.0892012 80.1847933,19.3152406 79.861875,19.7673262 C79.5389567,20.2194118 79.3775,20.8716969 79.3775,21.7242012 C79.3775,22.5767054 79.5389567,23.2264073 79.861875,23.6733262 C80.1847933,24.1202451 80.68208,24.3437012 81.35375,24.3437012 L81.35375,24.3437012 Z M96.7065,16.7022012 C96.6289996,16.8262018 96.5476254,16.9192009 96.462375,16.9812012 C96.3771246,17.0432015 96.267334,17.0742012 96.133,17.0742012 C96.0141661,17.0742012 95.8862924,17.0367432 95.749375,16.9618262 C95.6124576,16.8869091 95.4574592,16.8029516 95.284375,16.7099512 C95.1112908,16.6169507 94.9136678,16.5329932 94.6915,16.4580762 C94.4693322,16.3831591 94.2161681,16.3457012 93.932,16.3457012 C93.4411642,16.3457012 93.0756262,16.4503251 92.835375,16.6595762 C92.5951238,16.8688272 92.475,17.1516994 92.475,17.5082012 C92.475,17.7355356 92.5473326,17.9241171 92.692,18.0739512 C92.8366674,18.2237853 93.0265405,18.3529506 93.261625,18.4614512 C93.4967095,18.5699517 93.7653735,18.6694091 94.067625,18.7598262 C94.3698765,18.8502433 94.6785818,18.9509923 94.99375,19.0620762 C95.3089182,19.1731601 95.6176235,19.3036171 95.919875,19.4534512 C96.2221265,19.6032853 96.4907905,19.79445 96.725875,20.0269512 C96.9609595,20.2594523 97.1508326,20.5423245 97.2955,20.8755762 C97.4401674,21.2088278 97.5125,21.6105322 97.5125,22.0807012 C97.5125,22.6025371 97.4220842,23.0907822 97.24125,23.5454512 C97.0604158,24.0001201 96.7982101,24.3966578 96.454625,24.7350762 C96.1110399,25.0734945 95.6873775,25.3395752 95.183625,25.5333262 C94.6798725,25.7270771 94.1076699,25.8239512 93.467,25.8239512 C93.1156649,25.8239512 92.7578768,25.7877849 92.393625,25.7154512 C92.0293732,25.6431175 91.6767517,25.5410768 91.33575,25.4093262 C90.9947483,25.2775755 90.6744182,25.1212854 90.37475,24.9404512 C90.0750818,24.7596169 89.8141678,24.5581189 89.592,24.3359512 L90.367,23.1114512 C90.4290003,23.0236174 90.5103745,22.9499931 90.611125,22.8905762 C90.7118755,22.8311592 90.8216661,22.8014512 90.9405,22.8014512 C91.0955008,22.8014512 91.2517909,22.850534 91.409375,22.9487012 C91.5669591,23.0468683 91.7452073,23.1553672 91.944125,23.2742012 C92.1430427,23.3930351 92.3716654,23.501534 92.63,23.5997012 C92.8883346,23.6978683 93.1931649,23.7469512 93.5445,23.7469512 C94.0198357,23.7469512 94.3892487,23.6423272 94.65275,23.4330762 C94.9162513,23.2238251 95.048,22.8918701 95.048,22.4372012 C95.048,22.1736999 94.9756674,21.9592853 94.831,21.7939512 C94.6863326,21.628617 94.4964595,21.4917017 94.261375,21.3832012 C94.0262905,21.2747006 93.7589182,21.1791183 93.45925,21.0964512 C93.1595818,21.0137841 92.8521682,20.9220767 92.537,20.8213262 C92.2218318,20.7205757 91.9144182,20.5965769 91.61475,20.4493262 C91.3150818,20.3020754 91.0477095,20.1083274 90.812625,19.8680762 C90.5775405,19.627825 90.3876674,19.3281613 90.243,18.9690762 C90.0983326,18.609991 90.026,18.1669538 90.026,17.6399512 C90.026,17.2162824 90.1112491,16.8029532 90.28175,16.3999512 C90.4522509,15.9969492 90.7028317,15.6378694 91.0335,15.3227012 C91.3641683,15.0075329 91.7697476,14.7556604 92.25025,14.5670762 C92.7307524,14.3784919 93.2809969,14.2842012 93.901,14.2842012 C94.2471684,14.2842012 94.58429,14.3113259 94.912375,14.3655762 C95.24046,14.4198264 95.5517485,14.499909 95.84625,14.6058262 C96.1407515,14.7117434 96.4158737,14.8383254 96.671625,14.9855762 C96.9273763,15.1328269 97.155999,15.2994502 97.3575,15.4854512 L96.7065,16.7022012 Z M101.17825,14.0982012 L101.17825,25.6999512 L98.77575,25.6999512 L98.77575,14.0982012 L101.17825,14.0982012 Z M106.952,22.4294512 C106.471498,22.4501179 106.076252,22.4914509 105.76625,22.5534512 C105.456248,22.6154515 105.210834,22.6929507 105.03,22.7859512 C104.849166,22.8789516 104.723875,22.9848672 104.654125,23.1037012 C104.584375,23.2225351 104.5495,23.3517005 104.5495,23.4912012 C104.5495,23.7650359 104.624416,23.9574923 104.77425,24.0685762 C104.924084,24.1796601 105.143665,24.2352012 105.433,24.2352012 C105.743002,24.2352012 106.014249,24.1809517 106.24675,24.0724512 C106.479251,23.9639506 106.714332,23.7882857 106.952,23.5454512 L106.952,22.4294512 Z M102.6275,18.7792012 C103.113169,18.3503657 103.651789,18.0313272 104.243375,17.8220762 C104.834961,17.6128251 105.469163,17.5082012 106.146,17.5082012 C106.631669,17.5082012 107.06954,17.5869921 107.459625,17.7445762 C107.84971,17.9021603 108.180374,18.1217414 108.451625,18.4033262 C108.722876,18.6849109 108.930833,19.0194492 109.0755,19.4069512 C109.220167,19.7944531 109.2925,20.2181155 109.2925,20.6779512 L109.2925,25.6999512 L108.192,25.6999512 C107.964666,25.6999512 107.792876,25.6689515 107.676625,25.6069512 C107.560374,25.5449509 107.4635,25.4157855 107.386,25.2194512 L107.2155,24.7777012 C107.013999,24.948202 106.820251,25.0980339 106.63425,25.2272012 C106.448249,25.3563685 106.255793,25.4661591 106.056875,25.5565762 C105.857957,25.6469933 105.646126,25.7141593 105.421375,25.7580762 C105.196624,25.8019931 104.947335,25.8239512 104.6735,25.8239512 C104.306665,25.8239512 103.973418,25.77616 103.67375,25.6805762 C103.374082,25.5849924 103.119626,25.4442021 102.910375,25.2582012 C102.701124,25.0722002 102.539667,24.8409942 102.426,24.5645762 C102.312333,24.2881581 102.2555,23.9691196 102.2555,23.6074512 C102.2555,23.3181164 102.327833,23.024911 102.4725,22.7278262 C102.617167,22.4307414 102.867748,22.1594941 103.22425,21.9140762 C103.580752,21.6686583 104.061247,21.4632853 104.66575,21.2979512 C105.270253,21.132617 106.032329,21.0396179 106.952,21.0189512 L106.952,20.6779512 C106.952,20.2077822 106.855126,19.8680772 106.661375,19.6588262 C106.467624,19.4495751 106.192502,19.3449512 105.836,19.3449512 C105.551832,19.3449512 105.319334,19.3759509 105.1385,19.4379512 C104.957666,19.4999515 104.796209,19.5697008 104.654125,19.6472012 C104.512041,19.7247016 104.373834,19.7944509 104.2395,19.8564512 C104.105166,19.9184515 103.945001,19.9494512 103.759,19.9494512 C103.593666,19.9494512 103.454167,19.9081183 103.3405,19.8254512 C103.226833,19.7427841 103.133834,19.6446184 103.0615,19.5309512 L102.6275,18.7792012 Z M116.7325,19.5697012 C116.660166,19.6575349 116.590417,19.7272842 116.52325,19.7789512 C116.456083,19.8306181 116.360501,19.8564512 116.2365,19.8564512 C116.117666,19.8564512 116.010459,19.8280348 115.914875,19.7712012 C115.819291,19.7143676 115.712084,19.6510765 115.59325,19.5813262 C115.474416,19.5115758 115.334917,19.4482848 115.17475,19.3914512 C115.014583,19.3346176 114.815668,19.3062012 114.578,19.3062012 C114.283499,19.3062012 114.029043,19.3604506 113.814625,19.4689512 C113.600207,19.5774517 113.423251,19.7324502 113.28375,19.9339512 C113.144249,20.1354522 113.040917,20.382158 112.97375,20.6740762 C112.906583,20.9659943 112.873,21.295366 112.873,21.6622012 C112.873,22.4320384 113.02154,23.0236158 113.318625,23.4369512 C113.61571,23.8502866 114.025164,24.0569512 114.547,24.0569512 C114.826001,24.0569512 115.046874,24.0220765 115.209625,23.9523262 C115.372376,23.8825758 115.510583,23.8050766 115.62425,23.7198262 C115.737917,23.6345757 115.842541,23.5557849 115.938125,23.4834512 C116.033709,23.4111175 116.153833,23.3749512 116.2985,23.3749512 C116.489668,23.3749512 116.634333,23.4447005 116.7325,23.5842012 L117.43,24.4444512 C117.181999,24.7286193 116.921085,24.9598253 116.64725,25.1380762 C116.373415,25.3163271 116.093126,25.4558257 115.806375,25.5565762 C115.519624,25.6573267 115.231585,25.727076 114.94225,25.7658262 C114.652915,25.8045764 114.371335,25.8239512 114.0975,25.8239512 C113.606664,25.8239512 113.137794,25.7309521 112.690875,25.5449512 C112.243956,25.3589502 111.851293,25.0889946 111.512875,24.7350762 C111.174457,24.3811577 110.905793,23.9458704 110.706875,23.4292012 C110.507957,22.9125319 110.4085,22.3235378 110.4085,21.6622012 C110.4085,21.0835316 110.495041,20.5423287 110.668125,20.0385762 C110.841209,19.5348237 111.096957,19.0982447 111.435375,18.7288262 C111.773793,18.3594077 112.192289,18.0687856 112.690875,17.8569512 C113.189461,17.6451168 113.76683,17.5392012 114.423,17.5392012 C115.053336,17.5392012 115.606164,17.6399502 116.0815,17.8414512 C116.556836,18.0429522 116.985665,18.3374492 117.368,18.7249512 L116.7325,19.5697012 Z M120.77025,14.0982012 L120.77025,20.6004512 L121.12675,20.6004512 C121.276584,20.6004512 121.39025,20.5784931 121.46775,20.5345762 C121.54525,20.4906593 121.62275,20.417035 121.70025,20.3137012 L123.21925,18.0507012 C123.31225,17.9215339 123.418166,17.8246598 123.537,17.7600762 C123.655834,17.6954925 123.808249,17.6632012 123.99425,17.6632012 L126.19525,17.6632012 L124.11825,20.5229512 C123.921916,20.7812858 123.689418,20.993117 123.42075,21.1584512 C123.539584,21.2462849 123.648083,21.3483256 123.74625,21.4645762 C123.844417,21.5808268 123.937416,21.7112838 124.02525,21.8559512 L126.28825,25.6999512 L124.11825,25.6999512 C123.937416,25.6999512 123.782417,25.6702431 123.65325,25.6108262 C123.524083,25.5514092 123.415584,25.4467853 123.32775,25.2969512 L121.80875,22.4527012 C121.736416,22.3235339 121.6615,22.2395764 121.584,22.2008262 C121.5065,22.162076 121.390251,22.1427012 121.23525,22.1427012 L120.77025,22.1427012 L120.77025,25.6999512 L118.36775,25.6999512 L118.36775,14.0982012 L120.77025,14.0982012 Z" id="Add-to-Slack" fill="#393A3F" sketch:type="MSShapeGroup"></path>
            <g id="Slack-Logo-Mark-Color" transform="translate(10.000000, 9.000000)" sketch:type="MSShapeGroup">
                <path d="M14.2624918,1.36111475 C13.9281639,0.331983607 12.8229344,-0.231180328 11.7939836,0.103327869 C10.7648525,0.437655738 10.2016885,1.54288525 10.5361967,2.57183607 L15.6019672,18.1579344 C15.9498197,19.1192623 16.9883279,19.6595246 17.9851803,19.372623 C19.0249508,19.0732787 19.6588033,17.9689508 19.327,16.9477541 C19.314377,16.9088033 14.2624918,1.36111475 14.2624918,1.36111475" id="Fill-1" fill="#E1A749"></path>
                <path d="M6.41318033,3.9114918 C6.07867213,2.88254098 4.97344262,2.31937705 3.9444918,2.65370492 C2.91536066,2.98803279 2.35219672,4.0932623 2.68670492,5.12239344 L7.75247541,20.7084918 C8.10032787,21.6698197 9.13883607,22.210082 10.1356885,21.923 C11.175459,21.6238361 11.8093115,20.5195082 11.4775082,19.4981311 C11.4648852,19.4593607 6.41318033,3.9114918 6.41318033,3.9114918" id="Fill-3" fill="#40AE86"></path>
                <path d="M20.6388852,14.2695246 C21.6680164,13.9351967 22.231,12.8299672 21.8966721,11.8008361 C21.5623443,10.7718852 20.4571148,10.2087213 19.4281639,10.5430492 L3.84206557,15.609 C2.8807377,15.9566721 2.34047541,16.9951803 2.62737705,17.9920328 C2.92672131,19.0318033 4.03104918,19.6656557 5.0522459,19.3338525 C5.09119672,19.3212295 20.6388852,14.2695246 20.6388852,14.2695246" id="Fill-5" fill="#CC245C"></path>
                <path d="M7.0904918,18.6716885 C8.10501639,18.3420492 9.41257377,17.9171967 10.8157049,17.4613279 C10.4860656,16.4468033 10.0612131,15.1390656 9.60516393,13.7357541 L5.87977049,14.9466557 L7.0904918,18.6716885" id="Fill-6" fill="#452546"></path>
                <path d="M14.9399836,16.1211311 C16.3483443,15.6636393 17.6573443,15.2382459 18.6651967,14.9107705 C18.3355574,13.8962459 17.9105246,12.5881475 17.4544754,11.1844754 L13.729082,12.395377 L14.9399836,16.1211311" id="Fill-7" fill="#B7272E"></path>
                <path d="M18.0885082,6.42003279 C19.117459,6.08570492 19.680623,4.98047541 19.3462951,3.95134426 C19.0119672,2.92239344 17.9067377,2.35922951 16.8776066,2.69355738 L1.2915082,7.7595082 C0.330180328,8.10718033 -0.210081967,9.14568852 0.077,10.142541 C0.376163934,11.1823115 1.4804918,11.8161639 2.50186885,11.4843607 C2.54063934,11.4717377 18.0885082,6.42003279 18.0885082,6.42003279" id="Fill-9" fill="#75C3CA"></path>
                <path d="M4.53939344,10.822377 C5.55391803,10.4927377 6.86183607,10.0677049 8.26514754,9.61183607 C7.80765574,8.20329508 7.3822623,6.89429508 7.05478689,5.8862623 L3.3284918,7.09734426 L4.53939344,10.822377" id="Fill-11" fill="#2B8A74"></path>
                <path d="M12.3887049,8.272 C13.7974262,7.81432787 15.1066066,7.38893443 16.1146393,7.06127869 C15.6569672,5.65255738 15.2315738,4.34319672 14.903918,3.33498361 L11.1778033,4.54606557 L12.3887049,8.272" id="Fill-12" fill="#637F3D"></path>
            </g>
        </g>
    </g>
</svg>